<svg xmlns="http://www.w3.org/2000/svg" xmlns:xlink="http://www.w3.org/1999/xlink" width="150" zoomAndPan="magnify" viewBox="0 0 112.5 37.5" height="50" preserveAspectRatio="xMidYMid meet" version="1.0"><defs><g/><clipPath id="6eb714b4cf"><path d="M 0.492188 4 L 64 4 L 64 37.007812 L 0.492188 37.007812 Z M 0.492188 4 " clip-rule="nonzero"/></clipPath><clipPath id="57a2df5867"><path d="M 0.492188 6 L 21 6 L 21 29 L 0.492188 29 Z M 0.492188 6 " clip-rule="nonzero"/></clipPath><clipPath id="3038ea10ee"><rect x="0" width="64" y="0" height="34"/></clipPath><clipPath id="17c4d38c88"><path d="M 60 4 L 111.511719 4 L 111.511719 37.007812 L 60 37.007812 Z M 60 4 " clip-rule="nonzero"/></clipPath><clipPath id="2b515de1da"><path d="M 33 6 L 51.511719 6 L 51.511719 29 L 33 29 Z M 33 6 " clip-rule="nonzero"/></clipPath><clipPath id="5cc624ac61"><rect x="0" width="52" y="0" height="34"/></clipPath></defs><g clip-path="url(#6eb714b4cf)"><g transform="matrix(1, 0, 0, 1, 0.000000000000000056, 4)"><g clip-path="url(#3038ea10ee)"><g clip-path="url(#57a2df5867)"><g fill="#000000" fill-opacity="1"><g transform="translate(1.320388, 26.412405)"><g><path d="M 18.785156 -2.683594 C 18.785156 -1.820312 18.597656 -1.035156 18.214844 -0.332031 C 17.851562 0.34375 17.367188 0.902344 16.757812 1.339844 C 16.148438 1.78125 15.480469 2.0625 14.757812 2.1875 C 13.988281 2.320312 13.234375 2.25 12.492188 1.980469 C 11.722656 1.703125 11.066406 1.214844 10.527344 0.515625 C 10.027344 -0.121094 9.703125 -0.800781 9.550781 -1.515625 C 9.421875 -2.132812 9.386719 -2.761719 9.453125 -3.402344 C 9.5 -3.886719 9.574219 -4.378906 9.664062 -4.882812 C 9.734375 -5.253906 9.785156 -5.640625 9.8125 -6.039062 C 9.835938 -6.308594 9.8125 -6.589844 9.746094 -6.878906 L 11.734375 -7.328125 L 13.683594 -6.722656 C 13.464844 -6.015625 13.25 -5.359375 13.039062 -4.742188 C 12.804688 -4.070312 12.566406 -3.476562 12.3125 -2.953125 C 11.992188 -2.289062 11.613281 -1.746094 11.179688 -1.324219 C 10.871094 -1.023438 10.523438 -0.792969 10.144531 -0.628906 C 9.742188 -0.457031 9.320312 -0.371094 8.875 -0.371094 C 8.460938 -0.371094 8.0625 -0.453125 7.679688 -0.613281 C 7.328125 -0.761719 7.003906 -0.972656 6.710938 -1.246094 C 6.316406 -1.613281 5.96875 -2.078125 5.667969 -2.632812 C 5.417969 -3.09375 5.203125 -3.605469 5.015625 -4.164062 C 4.847656 -4.667969 4.699219 -5.175781 4.574219 -5.695312 C 4.449219 -6.195312 4.34375 -6.671875 4.261719 -7.125 L 6.265625 -7.503906 L 8.265625 -7.117188 C 8.15625 -6.554688 8.105469 -6.023438 8.109375 -5.519531 C 8.113281 -4.941406 8.136719 -4.398438 8.183594 -3.898438 C 8.238281 -3.28125 8.269531 -2.722656 8.273438 -2.214844 C 8.28125 -1.515625 8.175781 -0.882812 7.96875 -0.320312 C 7.8125 0.09375 7.589844 0.460938 7.292969 0.78125 C 7.011719 1.085938 6.679688 1.335938 6.292969 1.53125 C 5.664062 1.855469 4.859375 2.015625 3.875 2.015625 C 2.808594 2.015625 1.890625 1.722656 1.125 1.136719 C 0.433594 0.609375 -0.0976562 -0.105469 -0.472656 -1 C -0.777344 -1.730469 -0.996094 -2.566406 -1.128906 -3.515625 C -1.246094 -4.371094 -1.3125 -5.304688 -1.324219 -6.320312 C -1.335938 -7.292969 -1.3125 -8.328125 -1.257812 -9.425781 C -1.199219 -10.484375 -1.136719 -11.574219 -1.066406 -12.691406 C -0.96875 -14.152344 -0.527344 -15.40625 0.253906 -16.460938 C 0.925781 -17.378906 1.707031 -18.050781 2.601562 -18.46875 C 3.097656 -18.699219 3.601562 -18.84375 4.121094 -18.902344 C 4.648438 -18.960938 5.175781 -18.925781 5.707031 -18.800781 C 6.722656 -18.558594 7.644531 -17.976562 8.464844 -17.042969 C 9.421875 -15.972656 10.199219 -14.414062 10.804688 -12.375 L 8.851562 -11.792969 L 6.824219 -12.019531 C 6.925781 -12.9375 7.105469 -13.804688 7.363281 -14.621094 C 7.640625 -15.496094 8.015625 -16.28125 8.488281 -16.96875 C 9.019531 -17.75 9.675781 -18.363281 10.457031 -18.8125 C 11.285156 -19.292969 12.21875 -19.53125 13.261719 -19.53125 C 14.296875 -19.53125 15.195312 -19.277344 15.953125 -18.765625 C 16.664062 -18.289062 17.226562 -17.648438 17.640625 -16.84375 C 17.984375 -16.171875 18.234375 -15.410156 18.386719 -14.554688 C 18.523438 -13.8125 18.605469 -13.015625 18.640625 -12.175781 L 18.644531 -12.148438 L 18.667969 -10.597656 C 18.675781 -9.992188 18.6875 -9.339844 18.703125 -8.636719 L 18.742188 -6.480469 L 18.773438 -4.40625 C 18.78125 -3.746094 18.785156 -3.171875 18.785156 -2.683594 Z M 14.707031 -2.683594 C 14.707031 -3.15625 14.703125 -3.710938 14.695312 -4.347656 L 14.667969 -6.402344 L 14.625 -8.546875 C 14.609375 -9.261719 14.597656 -9.925781 14.589844 -10.535156 L 14.566406 -12.058594 L 16.605469 -12.089844 L 14.566406 -12.003906 C 14.539062 -12.660156 14.476562 -13.269531 14.375 -13.832031 C 14.292969 -14.285156 14.167969 -14.671875 14.007812 -14.984375 C 13.917969 -15.164062 13.808594 -15.292969 13.683594 -15.378906 C 13.664062 -15.390625 13.628906 -15.40625 13.585938 -15.417969 C 13.5 -15.441406 13.390625 -15.453125 13.261719 -15.453125 C 12.945312 -15.453125 12.691406 -15.394531 12.496094 -15.28125 C 12.25 -15.140625 12.035156 -14.9375 11.851562 -14.667969 C 11.609375 -14.308594 11.40625 -13.882812 11.25 -13.390625 C 11.074219 -12.832031 10.949219 -12.226562 10.878906 -11.570312 L 6.898438 -11.214844 C 6.667969 -11.980469 6.421875 -12.636719 6.152344 -13.183594 C 5.914062 -13.667969 5.667969 -14.054688 5.410156 -14.34375 C 5.261719 -14.511719 5.121094 -14.640625 4.988281 -14.726562 C 4.90625 -14.78125 4.832031 -14.816406 4.765625 -14.832031 C 4.695312 -14.851562 4.628906 -14.855469 4.570312 -14.847656 C 4.5 -14.839844 4.421875 -14.816406 4.335938 -14.777344 C 4.070312 -14.652344 3.800781 -14.402344 3.527344 -14.03125 C 3.222656 -13.617188 3.046875 -13.085938 3.003906 -12.433594 C 2.933594 -11.328125 2.871094 -10.257812 2.816406 -9.210938 C 2.761719 -8.203125 2.742188 -7.257812 2.753906 -6.371094 C 2.765625 -5.527344 2.816406 -4.761719 2.914062 -4.070312 C 2.996094 -3.476562 3.121094 -2.980469 3.285156 -2.578125 C 3.382812 -2.351562 3.488281 -2.191406 3.601562 -2.105469 C 3.609375 -2.101562 3.621094 -2.09375 3.636719 -2.089844 C 3.695312 -2.070312 3.777344 -2.0625 3.875 -2.0625 C 4.085938 -2.0625 4.257812 -2.074219 4.386719 -2.097656 C 4.425781 -2.105469 4.457031 -2.109375 4.476562 -2.117188 C 4.46875 -2.113281 4.457031 -2.109375 4.4375 -2.097656 C 4.390625 -2.074219 4.34375 -2.035156 4.292969 -1.984375 C 4.226562 -1.914062 4.179688 -1.832031 4.148438 -1.746094 C 4.179688 -1.839844 4.195312 -1.984375 4.195312 -2.179688 C 4.191406 -2.574219 4.167969 -3.023438 4.121094 -3.523438 C 4.0625 -4.140625 4.035156 -4.796875 4.03125 -5.496094 C 4.023438 -6.265625 4.101562 -7.066406 4.261719 -7.890625 L 8.269531 -7.882812 C 8.339844 -7.5 8.429688 -7.097656 8.535156 -6.667969 C 8.632812 -6.257812 8.75 -5.851562 8.882812 -5.453125 C 8.996094 -5.117188 9.121094 -4.820312 9.257812 -4.566406 C 9.34375 -4.402344 9.421875 -4.292969 9.492188 -4.226562 C 9.429688 -4.285156 9.351562 -4.332031 9.257812 -4.371094 C 9.136719 -4.425781 9.007812 -4.449219 8.875 -4.449219 C 8.761719 -4.449219 8.652344 -4.425781 8.546875 -4.382812 C 8.460938 -4.34375 8.394531 -4.300781 8.34375 -4.253906 C 8.429688 -4.335938 8.527344 -4.496094 8.640625 -4.726562 C 8.820312 -5.105469 9.003906 -5.550781 9.179688 -6.070312 C 9.378906 -6.644531 9.582031 -7.265625 9.789062 -7.933594 L 12.046875 -15.210938 L 13.726562 -7.777344 C 13.878906 -7.089844 13.933594 -6.410156 13.882812 -5.734375 C 13.839844 -5.1875 13.773438 -4.652344 13.675781 -4.136719 C 13.601562 -3.746094 13.546875 -3.363281 13.511719 -2.992188 C 13.488281 -2.773438 13.5 -2.5625 13.542969 -2.359375 C 13.5625 -2.257812 13.632812 -2.132812 13.75 -1.984375 C 13.808594 -1.90625 13.851562 -1.863281 13.882812 -1.851562 C 13.949219 -1.828125 14.007812 -1.824219 14.066406 -1.832031 C 14.171875 -1.851562 14.273438 -1.894531 14.371094 -1.964844 C 14.472656 -2.039062 14.558594 -2.140625 14.625 -2.269531 C 14.679688 -2.367188 14.707031 -2.507812 14.707031 -2.683594 Z M 14.707031 -2.683594 "/></g></g></g></g><g fill="#000000" fill-opacity="1"><g transform="translate(18.769309, 26.412405)"><g><path d="M 15.792969 -9.503906 C 15.96875 -8.4375 16.089844 -7.417969 16.15625 -6.441406 C 16.226562 -5.417969 16.226562 -4.472656 16.148438 -3.605469 C 16.0625 -2.640625 15.875 -1.785156 15.574219 -1.035156 C 15.210938 -0.113281 14.671875 0.617188 13.960938 1.15625 C 13.1875 1.746094 12.265625 2.039062 11.191406 2.039062 C 10.484375 2.039062 9.847656 1.933594 9.28125 1.722656 C 8.609375 1.46875 8.054688 1.082031 7.613281 0.558594 C 6.867188 -0.324219 6.492188 -1.464844 6.492188 -2.859375 L 8.53125 -2.859375 L 8.425781 -0.824219 C 8.195312 -0.835938 7.941406 -0.835938 7.671875 -0.824219 C 7.382812 -0.808594 7.078125 -0.78125 6.753906 -0.742188 L 6.5 -2.765625 L 8.492188 -3.191406 C 8.640625 -2.507812 8.664062 -1.835938 8.5625 -1.183594 C 8.457031 -0.496094 8.222656 0.128906 7.867188 0.691406 C 7.480469 1.300781 6.96875 1.785156 6.339844 2.140625 C 5.691406 2.507812 4.96875 2.6875 4.171875 2.6875 C 3.160156 2.6875 2.269531 2.457031 1.503906 1.988281 C 0.773438 1.539062 0.1875 0.933594 -0.253906 0.167969 C -0.628906 -0.484375 -0.902344 -1.21875 -1.078125 -2.039062 C -1.238281 -2.78125 -1.320312 -3.566406 -1.328125 -4.398438 C -1.339844 -5.175781 -1.296875 -5.96875 -1.203125 -6.769531 C -1.113281 -7.554688 -0.984375 -8.320312 -0.820312 -9.066406 C -0.613281 -10.023438 -0.375 -10.96875 -0.101562 -11.898438 C 0.1875 -12.871094 0.523438 -13.785156 0.90625 -14.636719 C 1.320312 -15.554688 1.804688 -16.367188 2.363281 -17.082031 C 2.988281 -17.890625 3.726562 -18.527344 4.570312 -18.996094 C 5.480469 -19.5 6.496094 -19.753906 7.609375 -19.753906 C 8.769531 -19.753906 9.78125 -19.582031 10.648438 -19.238281 C 11.582031 -18.871094 12.363281 -18.320312 13.003906 -17.59375 C 13.578125 -16.941406 14.046875 -16.160156 14.414062 -15.253906 C 14.734375 -14.453125 15.007812 -13.550781 15.222656 -12.546875 C 15.425781 -11.621094 15.613281 -10.605469 15.792969 -9.496094 Z M 11.765625 -8.84375 C 11.597656 -9.882812 11.421875 -10.828125 11.238281 -11.683594 C 11.070312 -12.457031 10.867188 -13.140625 10.628906 -13.726562 C 10.4375 -14.207031 10.207031 -14.597656 9.9375 -14.90625 C 9.730469 -15.140625 9.46875 -15.320312 9.148438 -15.449219 C 8.761719 -15.601562 8.25 -15.675781 7.609375 -15.675781 C 7.199219 -15.675781 6.84375 -15.59375 6.550781 -15.429688 C 6.191406 -15.230469 5.867188 -14.945312 5.578125 -14.578125 C 5.222656 -14.117188 4.902344 -13.578125 4.625 -12.960938 C 4.316406 -12.277344 4.046875 -11.539062 3.8125 -10.746094 C 3.566406 -9.910156 3.347656 -9.058594 3.160156 -8.1875 C 3.027344 -7.578125 2.921875 -6.949219 2.847656 -6.300781 C 2.773438 -5.671875 2.742188 -5.050781 2.75 -4.441406 C 2.753906 -3.886719 2.808594 -3.367188 2.910156 -2.890625 C 2.996094 -2.488281 3.117188 -2.148438 3.28125 -1.867188 C 3.375 -1.703125 3.492188 -1.578125 3.636719 -1.492188 C 3.746094 -1.421875 3.925781 -1.390625 4.171875 -1.390625 C 4.253906 -1.390625 4.308594 -1.394531 4.332031 -1.410156 C 4.371094 -1.429688 4.402344 -1.457031 4.421875 -1.492188 C 4.476562 -1.578125 4.511719 -1.683594 4.53125 -1.808594 C 4.558594 -1.964844 4.546875 -2.140625 4.507812 -2.339844 L 4.039062 -4.511719 L 6.246094 -4.789062 C 6.679688 -4.84375 7.089844 -4.878906 7.480469 -4.898438 C 7.886719 -4.914062 8.273438 -4.914062 8.640625 -4.894531 L 10.570312 -4.792969 L 10.570312 -2.859375 C 10.570312 -2.613281 10.597656 -2.410156 10.644531 -2.253906 C 10.667969 -2.167969 10.699219 -2.109375 10.730469 -2.070312 C 10.71875 -2.085938 10.707031 -2.097656 10.691406 -2.105469 C 10.691406 -2.105469 10.6875 -2.109375 10.6875 -2.109375 C 10.695312 -2.105469 10.699219 -2.101562 10.710938 -2.097656 C 10.816406 -2.058594 10.976562 -2.039062 11.191406 -2.039062 C 11.296875 -2.039062 11.382812 -2.046875 11.445312 -2.066406 C 11.46875 -2.074219 11.484375 -2.082031 11.496094 -2.089844 C 11.601562 -2.171875 11.699219 -2.320312 11.785156 -2.535156 C 11.933594 -2.917969 12.035156 -3.394531 12.085938 -3.960938 C 12.144531 -4.617188 12.144531 -5.351562 12.089844 -6.160156 C 12.03125 -7.007812 11.921875 -7.902344 11.769531 -8.839844 Z M 6.738281 -9.390625 L 8.011719 -9.390625 L 8.011719 -7.351562 L 5.980469 -7.519531 C 6.019531 -8.007812 6.027344 -8.644531 6.003906 -9.429688 C 5.976562 -10.25 5.910156 -11.222656 5.804688 -12.347656 C 5.804688 -12.363281 5.800781 -12.375 5.800781 -12.382812 L 5.800781 -12.378906 C 5.808594 -12.351562 5.816406 -12.320312 5.824219 -12.285156 C 5.902344 -12.023438 6.054688 -11.785156 6.277344 -11.574219 C 6.441406 -11.417969 6.628906 -11.296875 6.84375 -11.207031 C 7.15625 -11.078125 7.480469 -11.035156 7.816406 -11.078125 C 8.113281 -11.117188 8.386719 -11.214844 8.632812 -11.378906 C 8.777344 -11.476562 8.90625 -11.589844 9.011719 -11.71875 C 9.125 -11.851562 9.207031 -11.988281 9.257812 -12.132812 C 9.265625 -12.15625 9.273438 -12.179688 9.277344 -12.199219 C 9.28125 -12.203125 9.28125 -12.203125 9.28125 -12.203125 C 9.28125 -12.203125 9.277344 -12.199219 9.277344 -12.191406 L 7.269531 -12.539062 L 9.285156 -12.25 C 9.242188 -11.925781 9.191406 -11.558594 9.136719 -11.148438 C 9.082031 -10.742188 9.03125 -10.324219 8.980469 -9.90625 C 8.929688 -9.484375 8.886719 -9.089844 8.847656 -8.71875 C 8.8125 -8.367188 8.785156 -8.070312 8.773438 -7.820312 C 8.765625 -7.71875 8.765625 -7.640625 8.765625 -7.578125 C 8.765625 -7.566406 8.765625 -7.558594 8.765625 -7.554688 C 8.761719 -7.578125 8.761719 -7.605469 8.753906 -7.640625 L 6.738281 -7.351562 Z M 6.738281 -5.3125 L 4.96875 -5.3125 L 4.71875 -7.0625 C 4.683594 -7.308594 4.675781 -7.636719 4.699219 -8.050781 C 4.71875 -8.363281 4.746094 -8.722656 4.789062 -9.136719 C 4.832031 -9.53125 4.878906 -9.949219 4.929688 -10.386719 C 4.980469 -10.824219 5.035156 -11.257812 5.09375 -11.683594 C 5.148438 -12.109375 5.203125 -12.488281 5.25 -12.828125 L 5.253906 -12.855469 L 5.257812 -12.886719 C 5.359375 -13.472656 5.566406 -13.953125 5.878906 -14.328125 C 6.027344 -14.507812 6.191406 -14.65625 6.378906 -14.777344 C 6.664062 -14.96875 6.976562 -15.082031 7.3125 -15.125 C 7.6875 -15.171875 8.050781 -15.125 8.402344 -14.980469 C 8.65625 -14.875 8.882812 -14.726562 9.085938 -14.53125 C 9.386719 -14.246094 9.605469 -13.886719 9.734375 -13.453125 C 9.796875 -13.234375 9.84375 -12.996094 9.867188 -12.730469 C 9.980469 -11.523438 10.050781 -10.464844 10.082031 -9.5625 C 10.109375 -8.621094 10.097656 -7.828125 10.046875 -7.179688 L 9.890625 -5.3125 Z M 6.738281 -5.3125 "/></g></g></g><g fill="#000000" fill-opacity="1"><g transform="translate(33.642827, 26.412405)"><g><path d="M 18.796875 -5.910156 C 18.632812 -5.074219 18.4375 -4.265625 18.207031 -3.484375 C 17.953125 -2.632812 17.644531 -1.859375 17.28125 -1.164062 C 16.84375 -0.339844 16.308594 0.328125 15.667969 0.84375 C 15.269531 1.164062 14.835938 1.402344 14.363281 1.566406 C 13.902344 1.722656 13.414062 1.804688 12.90625 1.804688 C 11.992188 1.804688 11.195312 1.652344 10.519531 1.347656 C 9.789062 1.019531 9.199219 0.5625 8.746094 -0.03125 C 8.351562 -0.542969 8.058594 -1.117188 7.867188 -1.746094 C 7.699219 -2.285156 7.59375 -2.847656 7.546875 -3.425781 C 7.503906 -3.921875 7.488281 -4.40625 7.492188 -4.882812 C 7.496094 -5.289062 7.5 -5.660156 7.5 -5.992188 C 7.5 -5.933594 7.507812 -5.863281 7.53125 -5.773438 C 7.597656 -5.503906 7.738281 -5.257812 7.945312 -5.035156 C 8.050781 -4.925781 8.171875 -4.828125 8.304688 -4.746094 C 8.503906 -4.625 8.71875 -4.542969 8.949219 -4.503906 C 9.210938 -4.457031 9.472656 -4.464844 9.730469 -4.527344 C 9.9375 -4.574219 10.128906 -4.65625 10.304688 -4.773438 C 10.496094 -4.894531 10.65625 -5.046875 10.789062 -5.230469 C 10.882812 -5.359375 10.960938 -5.5 11.015625 -5.644531 C 11.066406 -5.789062 11.097656 -5.921875 11.101562 -6.046875 C 11.078125 -5.464844 11.039062 -4.882812 10.992188 -4.296875 C 10.9375 -3.65625 10.847656 -3.039062 10.726562 -2.441406 C 10.585938 -1.761719 10.375 -1.136719 10.101562 -0.570312 C 9.757812 0.136719 9.292969 0.714844 8.703125 1.164062 C 8.046875 1.664062 7.269531 1.949219 6.363281 2.019531 C 5.113281 2.105469 4 1.871094 3.03125 1.316406 C 2.125 0.800781 1.367188 0.0625 0.757812 -0.894531 C 0.222656 -1.730469 -0.203125 -2.695312 -0.519531 -3.78125 C -0.820312 -4.800781 -1.03125 -5.894531 -1.160156 -7.066406 C -1.28125 -8.195312 -1.339844 -9.351562 -1.332031 -10.53125 C -1.316406 -12.476562 -1.175781 -14.058594 -0.90625 -15.28125 C -0.753906 -15.980469 -0.554688 -16.582031 -0.308594 -17.089844 C 0.00390625 -17.734375 0.398438 -18.242188 0.875 -18.621094 C 1.515625 -19.109375 2.179688 -19.421875 2.875 -19.558594 C 3.628906 -19.703125 4.355469 -19.652344 5.058594 -19.394531 C 5.734375 -19.148438 6.320312 -18.742188 6.816406 -18.171875 C 7.285156 -17.632812 7.625 -16.972656 7.832031 -16.195312 C 7.933594 -15.804688 8.011719 -15.457031 8.066406 -15.152344 C 8.125 -14.820312 8.160156 -14.476562 8.175781 -14.125 C 8.191406 -13.839844 8.199219 -13.503906 8.203125 -13.117188 L 8.21875 -11.761719 C 8.226562 -11.238281 8.246094 -10.574219 8.277344 -9.769531 L 8.28125 -9.730469 L 8.28125 -9.691406 C 8.28125 -9.996094 8.195312 -10.289062 8.023438 -10.570312 C 7.898438 -10.777344 7.738281 -10.953125 7.542969 -11.09375 C 7.367188 -11.226562 7.175781 -11.320312 6.964844 -11.378906 C 6.691406 -11.457031 6.414062 -11.464844 6.136719 -11.40625 C 5.902344 -11.355469 5.699219 -11.261719 5.515625 -11.128906 C 5.269531 -10.945312 5.089844 -10.714844 4.972656 -10.4375 C 4.890625 -10.246094 4.851562 -10.058594 4.851562 -9.867188 C 4.851562 -10.242188 4.878906 -10.753906 4.933594 -11.398438 L 5.125 -13.5625 L 5.132812 -13.621094 C 5.238281 -14.375 5.550781 -15.027344 6.066406 -15.582031 C 6.5 -16.039062 7.015625 -16.390625 7.617188 -16.636719 C 8.171875 -16.859375 8.742188 -16.976562 9.335938 -16.988281 C 9.992188 -17.003906 10.609375 -16.878906 11.1875 -16.617188 C 11.546875 -16.457031 11.867188 -16.238281 12.148438 -15.972656 C 12.421875 -15.710938 12.648438 -15.40625 12.832031 -15.0625 C 13.113281 -14.53125 13.300781 -13.980469 13.398438 -13.40625 C 13.476562 -12.949219 13.515625 -12.484375 13.519531 -12.011719 C 13.523438 -11.660156 13.53125 -11.308594 13.542969 -10.957031 C 13.550781 -10.71875 13.582031 -10.480469 13.632812 -10.25 C 13.628906 -10.261719 13.628906 -10.265625 13.632812 -10.253906 C 13.632812 -10.253906 13.632812 -10.25 13.632812 -10.25 C 13.632812 -10.253906 13.632812 -10.253906 13.628906 -10.257812 C 13.609375 -10.320312 13.578125 -10.382812 13.535156 -10.457031 C 13.402344 -10.683594 13.21875 -10.871094 12.988281 -11.027344 C 12.773438 -11.171875 12.535156 -11.269531 12.28125 -11.320312 C 11.992188 -11.375 11.703125 -11.367188 11.417969 -11.292969 C 11.171875 -11.226562 10.945312 -11.121094 10.742188 -10.964844 C 10.59375 -10.855469 10.464844 -10.722656 10.355469 -10.578125 C 10.246094 -10.425781 10.164062 -10.269531 10.113281 -10.105469 C 10.097656 -10.054688 10.089844 -10.015625 10.082031 -9.984375 C 10.085938 -10 10.085938 -10.027344 10.089844 -10.0625 C 10.132812 -10.757812 10.199219 -11.480469 10.289062 -12.230469 C 10.386719 -13.007812 10.519531 -13.769531 10.6875 -14.511719 C 10.871094 -15.316406 11.113281 -16.054688 11.417969 -16.734375 C 11.773438 -17.535156 12.238281 -18.203125 12.804688 -18.742188 C 13.152344 -19.074219 13.542969 -19.335938 13.972656 -19.53125 C 14.394531 -19.722656 14.847656 -19.847656 15.324219 -19.898438 C 16.671875 -20.035156 17.777344 -19.800781 18.640625 -19.191406 C 19.101562 -18.867188 19.476562 -18.453125 19.769531 -17.960938 C 20.03125 -17.515625 20.21875 -17.015625 20.328125 -16.457031 C 20.503906 -15.582031 20.527344 -14.554688 20.390625 -13.371094 C 20.273438 -12.328125 20.066406 -11.15625 19.769531 -9.851562 C 19.484375 -8.601562 19.148438 -7.246094 18.765625 -5.78125 L 16.792969 -6.300781 Z M 14.792969 -6.6875 L 14.804688 -6.753906 L 14.820312 -6.816406 C 15.195312 -8.238281 15.515625 -9.550781 15.792969 -10.757812 C 16.054688 -11.914062 16.238281 -12.9375 16.339844 -13.832031 C 16.425781 -14.589844 16.421875 -15.195312 16.332031 -15.652344 C 16.308594 -15.761719 16.285156 -15.839844 16.257812 -15.886719 C 16.257812 -15.878906 16.269531 -15.871094 16.285156 -15.863281 C 16.304688 -15.847656 16.324219 -15.835938 16.339844 -15.828125 C 16.332031 -15.832031 16.316406 -15.835938 16.289062 -15.839844 C 16.15625 -15.863281 15.980469 -15.863281 15.757812 -15.839844 C 15.714844 -15.835938 15.683594 -15.828125 15.664062 -15.820312 C 15.648438 -15.8125 15.628906 -15.800781 15.609375 -15.78125 C 15.433594 -15.613281 15.277344 -15.378906 15.140625 -15.070312 C 14.945312 -14.636719 14.789062 -14.148438 14.664062 -13.605469 C 14.523438 -13 14.417969 -12.375 14.339844 -11.738281 C 14.257812 -11.070312 14.199219 -10.429688 14.160156 -9.816406 C 14.078125 -8.441406 13.503906 -7.621094 12.441406 -7.34375 C 12.132812 -7.265625 11.816406 -7.253906 11.503906 -7.316406 C 11.21875 -7.371094 10.957031 -7.476562 10.71875 -7.640625 C 10.433594 -7.828125 10.203125 -8.078125 10.023438 -8.382812 C 9.871094 -8.640625 9.746094 -8.964844 9.648438 -9.367188 C 9.542969 -9.84375 9.484375 -10.332031 9.46875 -10.824219 C 9.453125 -11.207031 9.445312 -11.585938 9.441406 -11.96875 C 9.441406 -12.230469 9.417969 -12.484375 9.375 -12.734375 C 9.351562 -12.871094 9.300781 -13.011719 9.222656 -13.160156 C 9.246094 -13.113281 9.28125 -13.070312 9.328125 -13.023438 C 9.382812 -12.972656 9.441406 -12.933594 9.503906 -12.902344 C 9.492188 -12.910156 9.46875 -12.914062 9.429688 -12.910156 C 9.332031 -12.910156 9.234375 -12.890625 9.140625 -12.851562 C 9.097656 -12.835938 9.066406 -12.816406 9.046875 -12.796875 C 9.117188 -12.867188 9.15625 -12.949219 9.167969 -13.042969 L 7.148438 -13.332031 L 9.183594 -13.15625 L 9 -11.042969 C 8.953125 -10.515625 8.929688 -10.125 8.929688 -9.867188 C 8.929688 -9.507812 8.863281 -9.167969 8.730469 -8.851562 C 8.558594 -8.445312 8.296875 -8.113281 7.945312 -7.851562 C 7.65625 -7.636719 7.34375 -7.496094 7.003906 -7.421875 C 6.617188 -7.335938 6.230469 -7.347656 5.84375 -7.457031 C 5.582031 -7.535156 5.339844 -7.652344 5.121094 -7.8125 C 4.886719 -7.988281 4.691406 -8.199219 4.539062 -8.449219 C 4.3125 -8.820312 4.199219 -9.234375 4.199219 -9.691406 L 6.238281 -9.691406 L 4.203125 -9.613281 C 4.171875 -10.449219 4.148438 -11.148438 4.140625 -11.710938 L 4.125 -13.074219 C 4.121094 -13.410156 4.113281 -13.703125 4.101562 -13.941406 C 4.09375 -14.121094 4.078125 -14.289062 4.046875 -14.453125 C 4.015625 -14.644531 3.960938 -14.875 3.890625 -15.144531 C 3.847656 -15.3125 3.796875 -15.429688 3.738281 -15.496094 C 3.707031 -15.535156 3.679688 -15.558594 3.664062 -15.5625 C 3.667969 -15.5625 3.675781 -15.558594 3.683594 -15.558594 C 3.679688 -15.558594 3.671875 -15.558594 3.660156 -15.554688 C 3.589844 -15.542969 3.503906 -15.496094 3.402344 -15.417969 C 3.417969 -15.429688 3.433594 -15.441406 3.441406 -15.453125 L 3.445312 -15.453125 C 3.421875 -15.421875 3.394531 -15.375 3.363281 -15.308594 C 3.253906 -15.09375 3.160156 -14.789062 3.074219 -14.40625 C 2.867188 -13.460938 2.757812 -12.160156 2.75 -10.503906 C 2.742188 -9.480469 2.789062 -8.480469 2.894531 -7.507812 C 2.996094 -6.574219 3.164062 -5.714844 3.394531 -4.925781 C 3.601562 -4.210938 3.871094 -3.597656 4.195312 -3.085938 C 4.445312 -2.699219 4.730469 -2.410156 5.050781 -2.226562 C 5.3125 -2.078125 5.640625 -2.019531 6.046875 -2.042969 C 6.121094 -2.050781 6.179688 -2.0625 6.21875 -2.074219 C 6.226562 -2.078125 6.230469 -2.078125 6.234375 -2.082031 C 6.230469 -2.078125 6.226562 -2.078125 6.222656 -2.074219 C 6.304688 -2.136719 6.371094 -2.226562 6.433594 -2.351562 C 6.558594 -2.609375 6.660156 -2.917969 6.730469 -3.265625 C 6.820312 -3.703125 6.886719 -4.160156 6.925781 -4.640625 C 6.972656 -5.171875 7.003906 -5.699219 7.027344 -6.222656 C 7.039062 -6.527344 7.09375 -6.808594 7.191406 -7.070312 C 7.371094 -7.546875 7.667969 -7.921875 8.082031 -8.191406 C 8.300781 -8.332031 8.53125 -8.433594 8.777344 -8.492188 C 9.074219 -8.5625 9.371094 -8.570312 9.671875 -8.515625 C 10.148438 -8.433594 10.558594 -8.207031 10.902344 -7.84375 C 11.351562 -7.375 11.578125 -6.753906 11.578125 -5.992188 C 11.578125 -5.648438 11.574219 -5.265625 11.570312 -4.84375 C 11.566406 -4.492188 11.582031 -4.128906 11.609375 -3.757812 C 11.632812 -3.472656 11.6875 -3.199219 11.765625 -2.945312 C 11.816406 -2.78125 11.886719 -2.636719 11.984375 -2.511719 C 12.019531 -2.464844 12.085938 -2.417969 12.183594 -2.375 C 12.332031 -2.308594 12.574219 -2.277344 12.90625 -2.277344 C 12.960938 -2.277344 13.007812 -2.28125 13.039062 -2.292969 C 13.0625 -2.300781 13.085938 -2.3125 13.109375 -2.335938 C 13.3125 -2.496094 13.5 -2.742188 13.671875 -3.066406 C 13.914062 -3.523438 14.121094 -4.046875 14.292969 -4.636719 C 14.488281 -5.296875 14.65625 -5.980469 14.792969 -6.6875 Z M 14.792969 -6.6875 "/></g></g></g><g fill="#000000" fill-opacity="1"><g transform="translate(52.781117, 26.412405)"><g><path d="M 4.714844 2.109375 C 3.972656 2.191406 3.265625 2.109375 2.601562 1.867188 C 1.945312 1.625 1.355469 1.230469 0.835938 0.6875 C -0.0351562 -0.222656 -0.648438 -1.519531 -1.003906 -3.207031 C -1.316406 -4.699219 -1.40625 -6.511719 -1.265625 -8.652344 C -1.132812 -10.71875 -0.753906 -13.082031 -0.128906 -15.746094 L 1.855469 -15.28125 L -0.144531 -15.679688 C 0.0078125 -16.433594 0.332031 -17.0625 0.832031 -17.574219 C 1.257812 -18.007812 1.765625 -18.335938 2.355469 -18.558594 C 2.820312 -18.734375 3.320312 -18.855469 3.847656 -18.917969 C 4.289062 -18.972656 4.730469 -19 5.164062 -19 C 6.101562 -19 6.871094 -18.789062 7.476562 -18.371094 C 7.828125 -18.128906 8.121094 -17.824219 8.355469 -17.457031 C 8.5625 -17.140625 8.714844 -16.785156 8.824219 -16.394531 C 8.964844 -15.863281 9.050781 -15.21875 9.074219 -14.460938 L 9.152344 -12.292969 C 9.175781 -11.394531 9.191406 -10.480469 9.199219 -9.554688 C 9.210938 -8.609375 9.195312 -7.679688 9.15625 -6.773438 C 9.121094 -5.832031 9.042969 -4.941406 8.929688 -4.097656 C 8.804688 -3.203125 8.628906 -2.386719 8.398438 -1.652344 C 8.125 -0.789062 7.753906 -0.0546875 7.28125 0.546875 C 6.683594 1.308594 5.925781 1.808594 5.015625 2.054688 L 4.867188 2.09375 Z M 4.265625 -1.945312 L 4.492188 0.0820312 L 3.964844 -1.886719 C 4 -1.898438 4.035156 -1.925781 4.074219 -1.976562 C 4.242188 -2.1875 4.386719 -2.484375 4.507812 -2.875 C 4.667969 -3.390625 4.796875 -3.984375 4.886719 -4.648438 C 4.984375 -5.363281 5.050781 -6.128906 5.082031 -6.9375 C 5.117188 -7.777344 5.128906 -8.640625 5.121094 -9.519531 C 5.113281 -10.421875 5.097656 -11.296875 5.078125 -12.148438 L 5 -14.328125 C 4.984375 -14.769531 4.949219 -15.101562 4.886719 -15.328125 C 4.886719 -15.332031 4.886719 -15.332031 4.882812 -15.332031 C 4.886719 -15.328125 4.886719 -15.324219 4.890625 -15.320312 C 4.898438 -15.296875 4.914062 -15.273438 4.929688 -15.246094 C 4.988281 -15.160156 5.0625 -15.082031 5.15625 -15.015625 C 5.242188 -14.957031 5.316406 -14.921875 5.378906 -14.90625 C 5.335938 -14.914062 5.265625 -14.921875 5.164062 -14.921875 C 4.890625 -14.921875 4.613281 -14.902344 4.332031 -14.871094 C 4.132812 -14.847656 3.957031 -14.804688 3.800781 -14.746094 C 3.769531 -14.734375 3.75 -14.722656 3.742188 -14.714844 C 3.785156 -14.757812 3.816406 -14.804688 3.839844 -14.851562 C 3.847656 -14.863281 3.851562 -14.878906 3.855469 -14.886719 C 3.855469 -14.890625 3.855469 -14.890625 3.855469 -14.890625 C 3.855469 -14.886719 3.855469 -14.886719 3.855469 -14.882812 L 3.847656 -14.847656 L 3.839844 -14.816406 C 3.269531 -12.371094 2.921875 -10.230469 2.804688 -8.390625 C 2.6875 -6.621094 2.75 -5.175781 2.988281 -4.050781 C 3.09375 -3.539062 3.226562 -3.113281 3.386719 -2.761719 C 3.511719 -2.488281 3.644531 -2.277344 3.785156 -2.128906 C 3.867188 -2.042969 3.945312 -1.984375 4.011719 -1.960938 C 4.074219 -1.9375 4.160156 -1.933594 4.265625 -1.945312 Z M 4.265625 -1.945312 "/></g></g></g><g fill="#0094f6" fill-opacity="1"><g transform="translate(1.320388, 26.412405)"><g><path d="M 16.75 -2.6875 C 16.75 -2.164062 16.640625 -1.703125 16.421875 -1.296875 C 16.203125 -0.898438 15.914062 -0.570312 15.5625 -0.3125 C 15.207031 -0.0507812 14.820312 0.109375 14.40625 0.171875 C 14 0.242188 13.59375 0.207031 13.1875 0.0625 C 12.78125 -0.0820312 12.429688 -0.347656 12.140625 -0.734375 C 11.828125 -1.128906 11.628906 -1.53125 11.546875 -1.9375 C 11.460938 -2.34375 11.441406 -2.757812 11.484375 -3.1875 C 11.523438 -3.625 11.585938 -4.0625 11.671875 -4.5 C 11.753906 -4.945312 11.8125 -5.40625 11.84375 -5.875 C 11.882812 -6.351562 11.847656 -6.835938 11.734375 -7.328125 C 11.523438 -6.640625 11.316406 -6 11.109375 -5.40625 C 10.898438 -4.8125 10.6875 -4.289062 10.46875 -3.84375 C 10.257812 -3.394531 10.023438 -3.039062 9.765625 -2.78125 C 9.503906 -2.53125 9.207031 -2.40625 8.875 -2.40625 C 8.59375 -2.40625 8.332031 -2.515625 8.09375 -2.734375 C 7.863281 -2.953125 7.648438 -3.238281 7.453125 -3.59375 C 7.265625 -3.957031 7.09375 -4.363281 6.9375 -4.8125 C 6.789062 -5.257812 6.660156 -5.710938 6.546875 -6.171875 C 6.429688 -6.640625 6.335938 -7.082031 6.265625 -7.5 C 6.128906 -6.8125 6.0625 -6.144531 6.0625 -5.5 C 6.070312 -4.863281 6.101562 -4.265625 6.15625 -3.703125 C 6.207031 -3.148438 6.234375 -2.648438 6.234375 -2.203125 C 6.234375 -1.753906 6.171875 -1.363281 6.046875 -1.03125 C 5.929688 -0.707031 5.703125 -0.457031 5.359375 -0.28125 C 5.023438 -0.113281 4.53125 -0.03125 3.875 -0.03125 C 3.269531 -0.03125 2.765625 -0.179688 2.359375 -0.484375 C 1.960938 -0.796875 1.644531 -1.234375 1.40625 -1.796875 C 1.164062 -2.359375 0.992188 -3.023438 0.890625 -3.796875 C 0.785156 -4.566406 0.726562 -5.414062 0.71875 -6.34375 C 0.707031 -7.269531 0.726562 -8.257812 0.78125 -9.3125 C 0.832031 -10.363281 0.894531 -11.445312 0.96875 -12.5625 C 1.039062 -13.613281 1.347656 -14.507812 1.890625 -15.25 C 2.359375 -15.894531 2.882812 -16.351562 3.46875 -16.625 C 4.050781 -16.894531 4.640625 -16.957031 5.234375 -16.8125 C 5.828125 -16.675781 6.394531 -16.300781 6.9375 -15.6875 C 7.695312 -14.84375 8.332031 -13.546875 8.84375 -11.796875 C 8.9375 -12.578125 9.085938 -13.3125 9.296875 -14 C 9.515625 -14.6875 9.800781 -15.289062 10.15625 -15.8125 C 10.519531 -16.34375 10.957031 -16.753906 11.46875 -17.046875 C 11.976562 -17.335938 12.578125 -17.484375 13.265625 -17.484375 C 13.878906 -17.484375 14.394531 -17.34375 14.8125 -17.0625 C 15.226562 -16.789062 15.5625 -16.40625 15.8125 -15.90625 C 16.070312 -15.414062 16.257812 -14.84375 16.375 -14.1875 C 16.5 -13.53125 16.578125 -12.832031 16.609375 -12.09375 C 16.609375 -11.675781 16.613281 -11.164062 16.625 -10.5625 C 16.632812 -9.957031 16.644531 -9.300781 16.65625 -8.59375 C 16.675781 -7.882812 16.691406 -7.164062 16.703125 -6.4375 C 16.710938 -5.71875 16.722656 -5.03125 16.734375 -4.375 C 16.742188 -3.726562 16.75 -3.164062 16.75 -2.6875 Z M 16.75 -2.6875 "/></g></g></g><g fill="#0094f6" fill-opacity="1"><g transform="translate(18.769309, 26.412405)"><g><path d="M 13.78125 -9.171875 C 13.945312 -8.171875 14.0625 -7.210938 14.125 -6.296875 C 14.1875 -5.378906 14.179688 -4.539062 14.109375 -3.78125 C 14.046875 -3.019531 13.898438 -2.351562 13.671875 -1.78125 C 13.453125 -1.21875 13.132812 -0.78125 12.71875 -0.46875 C 12.3125 -0.15625 11.800781 0 11.1875 0 C 10.269531 0 9.597656 -0.25 9.171875 -0.75 C 8.742188 -1.257812 8.53125 -1.960938 8.53125 -2.859375 C 8.226562 -2.878906 7.90625 -2.878906 7.5625 -2.859375 C 7.226562 -2.847656 6.875 -2.816406 6.5 -2.765625 C 6.59375 -2.328125 6.609375 -1.90625 6.546875 -1.5 C 6.484375 -1.09375 6.347656 -0.726562 6.140625 -0.40625 C 5.941406 -0.0820312 5.671875 0.171875 5.328125 0.359375 C 4.992188 0.554688 4.609375 0.65625 4.171875 0.65625 C 3.535156 0.65625 3 0.519531 2.5625 0.25 C 2.132812 -0.0195312 1.785156 -0.382812 1.515625 -0.84375 C 1.242188 -1.3125 1.039062 -1.847656 0.90625 -2.453125 C 0.78125 -3.066406 0.710938 -3.71875 0.703125 -4.40625 C 0.703125 -5.101562 0.742188 -5.8125 0.828125 -6.53125 C 0.910156 -7.25 1.023438 -7.945312 1.171875 -8.625 C 1.367188 -9.539062 1.597656 -10.4375 1.859375 -11.3125 C 2.117188 -12.195312 2.421875 -13.023438 2.765625 -13.796875 C 3.109375 -14.566406 3.507812 -15.242188 3.96875 -15.828125 C 4.425781 -16.410156 4.957031 -16.867188 5.5625 -17.203125 C 6.164062 -17.546875 6.847656 -17.71875 7.609375 -17.71875 C 8.503906 -17.71875 9.265625 -17.59375 9.890625 -17.34375 C 10.515625 -17.09375 11.035156 -16.726562 11.453125 -16.25 C 11.878906 -15.769531 12.234375 -15.179688 12.515625 -14.484375 C 12.796875 -13.796875 13.03125 -13.003906 13.21875 -12.109375 C 13.414062 -11.222656 13.601562 -10.242188 13.78125 -9.171875 Z M 6.734375 -7.34375 L 8.015625 -7.34375 C 8.054688 -7.914062 8.0625 -8.628906 8.03125 -9.484375 C 8.007812 -10.347656 7.941406 -11.363281 7.828125 -12.53125 C 7.804688 -12.800781 7.753906 -12.972656 7.671875 -13.046875 C 7.597656 -13.117188 7.519531 -13.109375 7.4375 -13.015625 C 7.363281 -12.921875 7.304688 -12.757812 7.265625 -12.53125 C 7.222656 -12.207031 7.171875 -11.832031 7.109375 -11.40625 C 7.054688 -10.988281 7.003906 -10.566406 6.953125 -10.140625 C 6.898438 -9.710938 6.851562 -9.304688 6.8125 -8.921875 C 6.78125 -8.546875 6.753906 -8.21875 6.734375 -7.9375 C 6.722656 -7.65625 6.722656 -7.457031 6.734375 -7.34375 Z M 6.734375 -7.34375 "/></g></g></g><g fill="#0094f6" fill-opacity="1"><g transform="translate(33.642827, 26.412405)"><g><path d="M 16.796875 -6.296875 C 16.640625 -5.523438 16.453125 -4.78125 16.234375 -4.0625 C 16.023438 -3.34375 15.769531 -2.691406 15.46875 -2.109375 C 15.164062 -1.535156 14.800781 -1.078125 14.375 -0.734375 C 13.957031 -0.398438 13.46875 -0.234375 12.90625 -0.234375 C 12.28125 -0.234375 11.757812 -0.328125 11.34375 -0.515625 C 10.9375 -0.703125 10.609375 -0.953125 10.359375 -1.265625 C 10.117188 -1.585938 9.9375 -1.945312 9.8125 -2.34375 C 9.6875 -2.738281 9.609375 -3.148438 9.578125 -3.578125 C 9.546875 -4.015625 9.53125 -4.441406 9.53125 -4.859375 C 9.53125 -5.273438 9.53125 -5.648438 9.53125 -5.984375 C 9.53125 -6.210938 9.492188 -6.363281 9.421875 -6.4375 C 9.347656 -6.519531 9.269531 -6.535156 9.1875 -6.484375 C 9.113281 -6.429688 9.070312 -6.3125 9.0625 -6.125 C 9.039062 -5.582031 9.003906 -5.03125 8.953125 -4.46875 C 8.910156 -3.90625 8.832031 -3.363281 8.71875 -2.84375 C 8.613281 -2.332031 8.460938 -1.867188 8.265625 -1.453125 C 8.066406 -1.046875 7.796875 -0.710938 7.453125 -0.453125 C 7.117188 -0.203125 6.703125 -0.0546875 6.203125 -0.015625 C 5.378906 0.046875 4.660156 -0.0976562 4.046875 -0.453125 C 3.429688 -0.804688 2.90625 -1.316406 2.46875 -1.984375 C 2.039062 -2.660156 1.695312 -3.445312 1.4375 -4.34375 C 1.175781 -5.25 0.988281 -6.226562 0.875 -7.28125 C 0.757812 -8.332031 0.703125 -9.410156 0.703125 -10.515625 C 0.734375 -14.117188 1.210938 -16.285156 2.140625 -17.015625 C 2.503906 -17.296875 2.878906 -17.472656 3.265625 -17.546875 C 3.648438 -17.628906 4.015625 -17.601562 4.359375 -17.46875 C 4.703125 -17.34375 5.003906 -17.128906 5.265625 -16.828125 C 5.535156 -16.523438 5.734375 -16.140625 5.859375 -15.671875 C 5.941406 -15.335938 6.003906 -15.046875 6.046875 -14.796875 C 6.097656 -14.546875 6.128906 -14.289062 6.140625 -14.03125 C 6.148438 -13.769531 6.15625 -13.457031 6.15625 -13.09375 C 6.164062 -12.726562 6.171875 -12.273438 6.171875 -11.734375 C 6.179688 -11.191406 6.203125 -10.507812 6.234375 -9.6875 C 6.234375 -9.539062 6.285156 -9.453125 6.390625 -9.421875 C 6.503906 -9.390625 6.613281 -9.410156 6.71875 -9.484375 C 6.832031 -9.566406 6.890625 -9.691406 6.890625 -9.859375 C 6.890625 -10.179688 6.914062 -10.632812 6.96875 -11.21875 C 7.019531 -11.800781 7.082031 -12.503906 7.15625 -13.328125 C 7.195312 -13.660156 7.328125 -13.945312 7.546875 -14.1875 C 7.773438 -14.425781 8.050781 -14.609375 8.375 -14.734375 C 8.695312 -14.867188 9.03125 -14.9375 9.375 -14.9375 C 9.726562 -14.945312 10.050781 -14.882812 10.34375 -14.75 C 10.632812 -14.625 10.863281 -14.410156 11.03125 -14.109375 C 11.207031 -13.765625 11.320312 -13.414062 11.375 -13.0625 C 11.4375 -12.707031 11.46875 -12.347656 11.46875 -11.984375 C 11.476562 -11.617188 11.488281 -11.253906 11.5 -10.890625 C 11.507812 -10.523438 11.554688 -10.164062 11.640625 -9.8125 C 11.722656 -9.457031 11.816406 -9.289062 11.921875 -9.3125 C 12.035156 -9.34375 12.101562 -9.550781 12.125 -9.9375 C 12.164062 -10.59375 12.226562 -11.273438 12.3125 -11.984375 C 12.394531 -12.691406 12.515625 -13.378906 12.671875 -14.046875 C 12.828125 -14.722656 13.023438 -15.335938 13.265625 -15.890625 C 13.515625 -16.453125 13.828125 -16.90625 14.203125 -17.25 C 14.578125 -17.601562 15.019531 -17.804688 15.53125 -17.859375 C 16.375 -17.953125 17.015625 -17.835938 17.453125 -17.515625 C 17.898438 -17.203125 18.191406 -16.710938 18.328125 -16.046875 C 18.460938 -15.378906 18.472656 -14.5625 18.359375 -13.59375 C 18.253906 -12.625 18.0625 -11.523438 17.78125 -10.296875 C 17.5 -9.066406 17.171875 -7.734375 16.796875 -6.296875 Z M 16.796875 -6.296875 "/></g></g></g><g fill="#0094f6" fill-opacity="1"><g transform="translate(52.781117, 26.412405)"><g><path d="M 4.484375 0.078125 C 3.640625 0.171875 2.914062 -0.09375 2.3125 -0.71875 C 1.707031 -1.351562 1.265625 -2.320312 0.984375 -3.625 C 0.710938 -4.9375 0.640625 -6.566406 0.765625 -8.515625 C 0.890625 -10.472656 1.253906 -12.726562 1.859375 -15.28125 C 1.929688 -15.632812 2.070312 -15.921875 2.28125 -16.140625 C 2.5 -16.359375 2.765625 -16.523438 3.078125 -16.640625 C 3.390625 -16.765625 3.722656 -16.847656 4.078125 -16.890625 C 4.441406 -16.929688 4.800781 -16.953125 5.15625 -16.953125 C 5.675781 -16.953125 6.0625 -16.863281 6.3125 -16.6875 C 6.570312 -16.507812 6.75 -16.234375 6.84375 -15.859375 C 6.945312 -15.484375 7.007812 -14.992188 7.03125 -14.390625 C 7.050781 -13.796875 7.078125 -13.070312 7.109375 -12.21875 C 7.140625 -11.34375 7.15625 -10.445312 7.15625 -9.53125 C 7.164062 -8.625 7.148438 -7.734375 7.109375 -6.859375 C 7.078125 -5.984375 7.007812 -5.15625 6.90625 -4.375 C 6.800781 -3.59375 6.648438 -2.890625 6.453125 -2.265625 C 6.253906 -1.640625 5.992188 -1.125 5.671875 -0.71875 C 5.359375 -0.3125 4.960938 -0.046875 4.484375 0.078125 Z M 4.484375 0.078125 "/></g></g></g></g></g></g><g clip-path="url(#17c4d38c88)"><g transform="matrix(1, 0, 0, 1, 60, 4)"><g clip-path="url(#5cc624ac61)"><g fill="#0094f6" fill-opacity="1"><g transform="translate(2.997734, 26.412405)"><g><path d="M 18.785156 -2.683594 C 18.785156 -1.820312 18.597656 -1.035156 18.214844 -0.332031 C 17.851562 0.34375 17.367188 0.902344 16.757812 1.339844 C 16.148438 1.78125 15.480469 2.0625 14.757812 2.1875 C 13.988281 2.320312 13.234375 2.25 12.492188 1.980469 C 11.722656 1.703125 11.066406 1.214844 10.527344 0.515625 C 10.027344 -0.121094 9.703125 -0.800781 9.550781 -1.515625 C 9.421875 -2.132812 9.386719 -2.761719 9.453125 -3.402344 C 9.5 -3.886719 9.574219 -4.378906 9.664062 -4.882812 C 9.734375 -5.253906 9.785156 -5.640625 9.8125 -6.039062 C 9.835938 -6.308594 9.8125 -6.589844 9.746094 -6.878906 L 11.734375 -7.328125 L 13.683594 -6.722656 C 13.464844 -6.015625 13.25 -5.359375 13.039062 -4.742188 C 12.804688 -4.070312 12.566406 -3.476562 12.3125 -2.953125 C 11.992188 -2.289062 11.613281 -1.746094 11.179688 -1.324219 C 10.871094 -1.023438 10.523438 -0.792969 10.144531 -0.628906 C 9.742188 -0.457031 9.320312 -0.371094 8.875 -0.371094 C 8.460938 -0.371094 8.0625 -0.453125 7.679688 -0.613281 C 7.328125 -0.761719 7.003906 -0.972656 6.710938 -1.246094 C 6.316406 -1.613281 5.96875 -2.078125 5.667969 -2.632812 C 5.417969 -3.09375 5.203125 -3.605469 5.015625 -4.164062 C 4.847656 -4.667969 4.699219 -5.175781 4.574219 -5.695312 C 4.449219 -6.195312 4.34375 -6.671875 4.261719 -7.125 L 6.265625 -7.503906 L 8.265625 -7.117188 C 8.15625 -6.554688 8.105469 -6.023438 8.109375 -5.519531 C 8.113281 -4.941406 8.136719 -4.398438 8.183594 -3.898438 C 8.238281 -3.28125 8.269531 -2.722656 8.273438 -2.214844 C 8.28125 -1.515625 8.175781 -0.882812 7.96875 -0.320312 C 7.8125 0.09375 7.589844 0.460938 7.292969 0.78125 C 7.011719 1.085938 6.679688 1.335938 6.292969 1.53125 C 5.664062 1.855469 4.859375 2.015625 3.875 2.015625 C 2.808594 2.015625 1.890625 1.722656 1.125 1.136719 C 0.433594 0.609375 -0.0976562 -0.105469 -0.472656 -1 C -0.777344 -1.730469 -0.996094 -2.566406 -1.128906 -3.515625 C -1.246094 -4.371094 -1.3125 -5.304688 -1.324219 -6.320312 C -1.335938 -7.292969 -1.3125 -8.328125 -1.257812 -9.425781 C -1.199219 -10.484375 -1.136719 -11.574219 -1.066406 -12.691406 C -0.96875 -14.152344 -0.527344 -15.40625 0.253906 -16.460938 C 0.925781 -17.378906 1.707031 -18.050781 2.601562 -18.46875 C 3.097656 -18.699219 3.601562 -18.84375 4.121094 -18.902344 C 4.648438 -18.960938 5.175781 -18.925781 5.707031 -18.800781 C 6.722656 -18.558594 7.644531 -17.976562 8.464844 -17.042969 C 9.421875 -15.972656 10.199219 -14.414062 10.804688 -12.375 L 8.851562 -11.792969 L 6.824219 -12.019531 C 6.925781 -12.9375 7.105469 -13.804688 7.363281 -14.621094 C 7.640625 -15.496094 8.015625 -16.28125 8.488281 -16.96875 C 9.019531 -17.75 9.675781 -18.363281 10.457031 -18.8125 C 11.285156 -19.292969 12.21875 -19.53125 13.261719 -19.53125 C 14.296875 -19.53125 15.195312 -19.277344 15.953125 -18.765625 C 16.664062 -18.289062 17.226562 -17.648438 17.640625 -16.84375 C 17.984375 -16.171875 18.234375 -15.410156 18.386719 -14.554688 C 18.523438 -13.8125 18.605469 -13.015625 18.640625 -12.175781 L 18.644531 -12.148438 L 18.667969 -10.597656 C 18.675781 -9.992188 18.6875 -9.339844 18.703125 -8.636719 L 18.742188 -6.480469 L 18.773438 -4.40625 C 18.78125 -3.746094 18.785156 -3.171875 18.785156 -2.683594 Z M 14.707031 -2.683594 C 14.707031 -3.15625 14.703125 -3.710938 14.695312 -4.347656 L 14.667969 -6.402344 L 14.625 -8.546875 C 14.609375 -9.261719 14.597656 -9.925781 14.589844 -10.535156 L 14.566406 -12.058594 L 16.605469 -12.089844 L 14.566406 -12.003906 C 14.539062 -12.660156 14.476562 -13.269531 14.375 -13.832031 C 14.292969 -14.285156 14.167969 -14.671875 14.007812 -14.984375 C 13.917969 -15.164062 13.808594 -15.292969 13.683594 -15.378906 C 13.664062 -15.390625 13.628906 -15.40625 13.585938 -15.417969 C 13.5 -15.441406 13.390625 -15.453125 13.261719 -15.453125 C 12.945312 -15.453125 12.691406 -15.394531 12.496094 -15.28125 C 12.25 -15.140625 12.035156 -14.9375 11.851562 -14.667969 C 11.609375 -14.308594 11.40625 -13.882812 11.25 -13.390625 C 11.074219 -12.832031 10.949219 -12.226562 10.878906 -11.570312 L 6.898438 -11.214844 C 6.667969 -11.980469 6.421875 -12.636719 6.152344 -13.183594 C 5.914062 -13.667969 5.667969 -14.054688 5.410156 -14.34375 C 5.261719 -14.511719 5.121094 -14.640625 4.988281 -14.726562 C 4.90625 -14.78125 4.832031 -14.816406 4.765625 -14.832031 C 4.695312 -14.851562 4.628906 -14.855469 4.570312 -14.847656 C 4.5 -14.839844 4.421875 -14.816406 4.335938 -14.777344 C 4.070312 -14.652344 3.800781 -14.402344 3.527344 -14.03125 C 3.222656 -13.617188 3.046875 -13.085938 3.003906 -12.433594 C 2.933594 -11.328125 2.871094 -10.257812 2.816406 -9.210938 C 2.761719 -8.203125 2.742188 -7.257812 2.753906 -6.371094 C 2.765625 -5.527344 2.816406 -4.761719 2.914062 -4.070312 C 2.996094 -3.476562 3.121094 -2.980469 3.285156 -2.578125 C 3.382812 -2.351562 3.488281 -2.191406 3.601562 -2.105469 C 3.609375 -2.101562 3.621094 -2.09375 3.636719 -2.089844 C 3.695312 -2.070312 3.777344 -2.0625 3.875 -2.0625 C 4.085938 -2.0625 4.257812 -2.074219 4.386719 -2.097656 C 4.425781 -2.105469 4.457031 -2.109375 4.476562 -2.117188 C 4.46875 -2.113281 4.457031 -2.109375 4.4375 -2.097656 C 4.390625 -2.074219 4.34375 -2.035156 4.292969 -1.984375 C 4.226562 -1.914062 4.179688 -1.832031 4.148438 -1.746094 C 4.179688 -1.839844 4.195312 -1.984375 4.195312 -2.179688 C 4.191406 -2.574219 4.167969 -3.023438 4.121094 -3.523438 C 4.0625 -4.140625 4.035156 -4.796875 4.03125 -5.496094 C 4.023438 -6.265625 4.101562 -7.066406 4.261719 -7.890625 L 8.269531 -7.882812 C 8.339844 -7.5 8.429688 -7.097656 8.535156 -6.667969 C 8.632812 -6.257812 8.75 -5.851562 8.882812 -5.453125 C 8.996094 -5.117188 9.121094 -4.820312 9.257812 -4.566406 C 9.34375 -4.402344 9.421875 -4.292969 9.492188 -4.226562 C 9.429688 -4.285156 9.351562 -4.332031 9.257812 -4.371094 C 9.136719 -4.425781 9.007812 -4.449219 8.875 -4.449219 C 8.761719 -4.449219 8.652344 -4.425781 8.546875 -4.382812 C 8.460938 -4.34375 8.394531 -4.300781 8.34375 -4.253906 C 8.429688 -4.335938 8.527344 -4.496094 8.640625 -4.726562 C 8.820312 -5.105469 9.003906 -5.550781 9.179688 -6.070312 C 9.378906 -6.644531 9.582031 -7.265625 9.789062 -7.933594 L 12.046875 -15.210938 L 13.726562 -7.777344 C 13.878906 -7.089844 13.933594 -6.410156 13.882812 -5.734375 C 13.839844 -5.1875 13.773438 -4.652344 13.675781 -4.136719 C 13.601562 -3.746094 13.546875 -3.363281 13.511719 -2.992188 C 13.488281 -2.773438 13.5 -2.5625 13.542969 -2.359375 C 13.5625 -2.257812 13.632812 -2.132812 13.75 -1.984375 C 13.808594 -1.90625 13.851562 -1.863281 13.882812 -1.851562 C 13.949219 -1.828125 14.007812 -1.824219 14.066406 -1.832031 C 14.171875 -1.851562 14.273438 -1.894531 14.371094 -1.964844 C 14.472656 -2.039062 14.558594 -2.140625 14.625 -2.269531 C 14.679688 -2.367188 14.707031 -2.507812 14.707031 -2.683594 Z M 14.707031 -2.683594 "/></g></g></g><g fill="#0094f6" fill-opacity="1"><g transform="translate(20.446655, 26.412405)"><g><path d="M 15.792969 -9.503906 C 15.96875 -8.4375 16.089844 -7.417969 16.15625 -6.441406 C 16.226562 -5.417969 16.226562 -4.472656 16.148438 -3.605469 C 16.0625 -2.640625 15.875 -1.785156 15.574219 -1.035156 C 15.210938 -0.113281 14.671875 0.617188 13.960938 1.15625 C 13.1875 1.746094 12.265625 2.039062 11.191406 2.039062 C 10.484375 2.039062 9.847656 1.933594 9.28125 1.722656 C 8.609375 1.46875 8.054688 1.082031 7.613281 0.558594 C 6.867188 -0.324219 6.492188 -1.464844 6.492188 -2.859375 L 8.53125 -2.859375 L 8.425781 -0.824219 C 8.195312 -0.835938 7.941406 -0.835938 7.671875 -0.824219 C 7.382812 -0.808594 7.078125 -0.78125 6.753906 -0.742188 L 6.5 -2.765625 L 8.492188 -3.191406 C 8.640625 -2.507812 8.664062 -1.835938 8.5625 -1.183594 C 8.457031 -0.496094 8.222656 0.128906 7.867188 0.691406 C 7.480469 1.300781 6.96875 1.785156 6.339844 2.140625 C 5.691406 2.507812 4.96875 2.6875 4.171875 2.6875 C 3.160156 2.6875 2.269531 2.457031 1.503906 1.988281 C 0.773438 1.539062 0.1875 0.933594 -0.253906 0.167969 C -0.628906 -0.484375 -0.902344 -1.21875 -1.078125 -2.039062 C -1.238281 -2.78125 -1.320312 -3.566406 -1.328125 -4.398438 C -1.339844 -5.175781 -1.296875 -5.96875 -1.203125 -6.769531 C -1.113281 -7.554688 -0.984375 -8.320312 -0.820312 -9.066406 C -0.613281 -10.023438 -0.375 -10.96875 -0.101562 -11.898438 C 0.1875 -12.871094 0.523438 -13.785156 0.90625 -14.636719 C 1.320312 -15.554688 1.804688 -16.367188 2.363281 -17.082031 C 2.988281 -17.890625 3.726562 -18.527344 4.570312 -18.996094 C 5.480469 -19.5 6.496094 -19.753906 7.609375 -19.753906 C 8.769531 -19.753906 9.78125 -19.582031 10.648438 -19.238281 C 11.582031 -18.871094 12.363281 -18.320312 13.003906 -17.59375 C 13.578125 -16.941406 14.046875 -16.160156 14.414062 -15.253906 C 14.734375 -14.453125 15.007812 -13.550781 15.222656 -12.546875 C 15.425781 -11.621094 15.613281 -10.605469 15.792969 -9.496094 Z M 11.765625 -8.84375 C 11.597656 -9.882812 11.421875 -10.828125 11.238281 -11.683594 C 11.070312 -12.457031 10.867188 -13.140625 10.628906 -13.726562 C 10.4375 -14.207031 10.207031 -14.597656 9.9375 -14.90625 C 9.730469 -15.140625 9.46875 -15.320312 9.148438 -15.449219 C 8.761719 -15.601562 8.25 -15.675781 7.609375 -15.675781 C 7.199219 -15.675781 6.84375 -15.59375 6.550781 -15.429688 C 6.191406 -15.230469 5.867188 -14.945312 5.578125 -14.578125 C 5.222656 -14.117188 4.902344 -13.578125 4.625 -12.960938 C 4.316406 -12.277344 4.046875 -11.539062 3.8125 -10.746094 C 3.566406 -9.910156 3.347656 -9.058594 3.160156 -8.1875 C 3.027344 -7.578125 2.921875 -6.949219 2.847656 -6.300781 C 2.773438 -5.671875 2.742188 -5.050781 2.75 -4.441406 C 2.753906 -3.886719 2.808594 -3.367188 2.910156 -2.890625 C 2.996094 -2.488281 3.117188 -2.148438 3.28125 -1.867188 C 3.375 -1.703125 3.492188 -1.578125 3.636719 -1.492188 C 3.746094 -1.421875 3.925781 -1.390625 4.171875 -1.390625 C 4.253906 -1.390625 4.308594 -1.394531 4.332031 -1.410156 C 4.371094 -1.429688 4.402344 -1.457031 4.421875 -1.492188 C 4.476562 -1.578125 4.511719 -1.683594 4.53125 -1.808594 C 4.558594 -1.964844 4.546875 -2.140625 4.507812 -2.339844 L 4.039062 -4.511719 L 6.246094 -4.789062 C 6.679688 -4.84375 7.089844 -4.878906 7.480469 -4.898438 C 7.886719 -4.914062 8.273438 -4.914062 8.640625 -4.894531 L 10.570312 -4.792969 L 10.570312 -2.859375 C 10.570312 -2.613281 10.597656 -2.410156 10.644531 -2.253906 C 10.667969 -2.167969 10.699219 -2.109375 10.730469 -2.070312 C 10.71875 -2.085938 10.707031 -2.097656 10.691406 -2.105469 C 10.691406 -2.105469 10.6875 -2.109375 10.6875 -2.109375 C 10.695312 -2.105469 10.699219 -2.101562 10.710938 -2.097656 C 10.816406 -2.058594 10.976562 -2.039062 11.191406 -2.039062 C 11.296875 -2.039062 11.382812 -2.046875 11.445312 -2.066406 C 11.46875 -2.074219 11.484375 -2.082031 11.496094 -2.089844 C 11.601562 -2.171875 11.699219 -2.320312 11.785156 -2.535156 C 11.933594 -2.917969 12.035156 -3.394531 12.085938 -3.960938 C 12.144531 -4.617188 12.144531 -5.351562 12.089844 -6.160156 C 12.03125 -7.007812 11.921875 -7.902344 11.769531 -8.839844 Z M 6.738281 -9.390625 L 8.011719 -9.390625 L 8.011719 -7.351562 L 5.980469 -7.519531 C 6.019531 -8.007812 6.027344 -8.644531 6.003906 -9.429688 C 5.976562 -10.25 5.910156 -11.222656 5.804688 -12.347656 C 5.804688 -12.363281 5.800781 -12.375 5.800781 -12.382812 L 5.800781 -12.378906 C 5.808594 -12.351562 5.816406 -12.320312 5.824219 -12.285156 C 5.902344 -12.023438 6.054688 -11.785156 6.277344 -11.574219 C 6.441406 -11.417969 6.628906 -11.296875 6.84375 -11.207031 C 7.15625 -11.078125 7.480469 -11.035156 7.816406 -11.078125 C 8.113281 -11.117188 8.386719 -11.214844 8.632812 -11.378906 C 8.777344 -11.476562 8.90625 -11.589844 9.011719 -11.71875 C 9.125 -11.851562 9.207031 -11.988281 9.257812 -12.132812 C 9.265625 -12.15625 9.273438 -12.179688 9.277344 -12.199219 C 9.28125 -12.203125 9.28125 -12.203125 9.28125 -12.203125 C 9.28125 -12.203125 9.277344 -12.199219 9.277344 -12.191406 L 7.269531 -12.539062 L 9.285156 -12.25 C 9.242188 -11.925781 9.191406 -11.558594 9.136719 -11.148438 C 9.082031 -10.742188 9.03125 -10.324219 8.980469 -9.90625 C 8.929688 -9.484375 8.886719 -9.089844 8.847656 -8.71875 C 8.8125 -8.367188 8.785156 -8.070312 8.773438 -7.820312 C 8.765625 -7.71875 8.765625 -7.640625 8.765625 -7.578125 C 8.765625 -7.566406 8.765625 -7.558594 8.765625 -7.554688 C 8.761719 -7.578125 8.761719 -7.605469 8.753906 -7.640625 L 6.738281 -7.351562 Z M 6.738281 -5.3125 L 4.96875 -5.3125 L 4.71875 -7.0625 C 4.683594 -7.308594 4.675781 -7.636719 4.699219 -8.050781 C 4.71875 -8.363281 4.746094 -8.722656 4.789062 -9.136719 C 4.832031 -9.53125 4.878906 -9.949219 4.929688 -10.386719 C 4.980469 -10.824219 5.035156 -11.257812 5.09375 -11.683594 C 5.148438 -12.109375 5.203125 -12.488281 5.25 -12.828125 L 5.253906 -12.855469 L 5.257812 -12.886719 C 5.359375 -13.472656 5.566406 -13.953125 5.878906 -14.328125 C 6.027344 -14.507812 6.191406 -14.65625 6.378906 -14.777344 C 6.664062 -14.96875 6.976562 -15.082031 7.3125 -15.125 C 7.6875 -15.171875 8.050781 -15.125 8.402344 -14.980469 C 8.65625 -14.875 8.882812 -14.726562 9.085938 -14.53125 C 9.386719 -14.246094 9.605469 -13.886719 9.734375 -13.453125 C 9.796875 -13.234375 9.84375 -12.996094 9.867188 -12.730469 C 9.980469 -11.523438 10.050781 -10.464844 10.082031 -9.5625 C 10.109375 -8.621094 10.097656 -7.828125 10.046875 -7.179688 L 9.890625 -5.3125 Z M 6.738281 -5.3125 "/></g></g></g><g clip-path="url(#2b515de1da)"><g fill="#0094f6" fill-opacity="1"><g transform="translate(35.320173, 26.412405)"><g><path d="M 15.996094 -8.121094 C 15.996094 -7.269531 15.96875 -6.433594 15.914062 -5.605469 C 15.859375 -4.738281 15.757812 -3.921875 15.613281 -3.152344 C 15.453125 -2.308594 15.222656 -1.550781 14.917969 -0.882812 C 14.546875 -0.0585938 14.046875 0.605469 13.417969 1.109375 C 13.039062 1.410156 12.617188 1.636719 12.160156 1.789062 C 11.722656 1.933594 11.265625 2.003906 10.777344 2.003906 C 9.835938 2.003906 8.996094 1.765625 8.253906 1.292969 C 7.609375 0.878906 7.054688 0.320312 6.585938 -0.375 C 6.207031 -0.949219 5.859375 -1.609375 5.554688 -2.355469 C 5.28125 -3.019531 5.015625 -3.738281 4.753906 -4.511719 C 4.515625 -5.230469 4.257812 -5.980469 3.984375 -6.761719 L 5.910156 -7.433594 L 7.890625 -7.914062 C 8.035156 -7.3125 8.148438 -6.675781 8.226562 -6.003906 C 8.300781 -5.339844 8.339844 -4.675781 8.339844 -4.011719 C 8.339844 -3.304688 8.28125 -2.628906 8.164062 -1.988281 C 8.03125 -1.261719 7.816406 -0.613281 7.511719 -0.0390625 C 7.132812 0.6875 6.609375 1.25 5.949219 1.648438 C 5.21875 2.085938 4.382812 2.25 3.441406 2.144531 C 2.355469 2.039062 1.445312 1.648438 0.714844 0.96875 C 0.0664062 0.367188 -0.410156 -0.398438 -0.722656 -1.324219 C -0.972656 -2.078125 -1.140625 -2.914062 -1.222656 -3.832031 C -1.292969 -4.652344 -1.332031 -5.519531 -1.332031 -6.429688 C -1.332031 -8.355469 -1.289062 -9.976562 -1.210938 -11.285156 C -1.128906 -12.671875 -0.996094 -13.746094 -0.816406 -14.507812 C -0.609375 -15.300781 -0.273438 -16.023438 0.191406 -16.675781 C 0.671875 -17.347656 1.257812 -17.890625 1.945312 -18.308594 C 2.71875 -18.777344 3.554688 -19.011719 4.457031 -19.011719 C 5.277344 -19.011719 6.039062 -18.78125 6.730469 -18.328125 C 7.296875 -17.957031 7.800781 -17.464844 8.238281 -16.855469 C 8.605469 -16.347656 8.933594 -15.78125 9.226562 -15.15625 C 9.5 -14.574219 9.742188 -13.964844 9.960938 -13.324219 C 10.167969 -12.71875 10.351562 -12.113281 10.519531 -11.511719 C 10.679688 -10.917969 10.820312 -10.363281 10.9375 -9.84375 L 8.945312 -9.394531 L 6.925781 -9.109375 L 6.472656 -12.3125 C 6.328125 -13.347656 6.257812 -14.199219 6.257812 -14.867188 C 6.257812 -15.699219 6.425781 -16.453125 6.765625 -17.136719 C 7.136719 -17.890625 7.675781 -18.480469 8.386719 -18.910156 C 9.082031 -19.332031 9.878906 -19.542969 10.777344 -19.542969 C 11.367188 -19.542969 11.914062 -19.457031 12.421875 -19.28125 C 12.976562 -19.09375 13.46875 -18.804688 13.898438 -18.421875 C 14.679688 -17.726562 15.203125 -16.765625 15.476562 -15.53125 C 15.546875 -15.191406 15.609375 -14.769531 15.664062 -14.257812 C 15.714844 -13.792969 15.761719 -13.285156 15.800781 -12.730469 C 15.84375 -12.183594 15.878906 -11.625 15.90625 -11.058594 C 15.933594 -10.492188 15.957031 -9.957031 15.972656 -9.449219 C 15.988281 -8.929688 15.996094 -8.488281 15.996094 -8.121094 Z M 11.917969 -8.121094 C 11.917969 -8.445312 11.910156 -8.84375 11.894531 -9.320312 C 11.878906 -9.804688 11.859375 -10.316406 11.832031 -10.855469 C 11.804688 -11.390625 11.773438 -11.914062 11.734375 -12.429688 C 11.695312 -12.941406 11.65625 -13.402344 11.609375 -13.824219 C 11.570312 -14.195312 11.53125 -14.472656 11.492188 -14.652344 C 11.445312 -14.878906 11.382812 -15.0625 11.308594 -15.203125 C 11.265625 -15.285156 11.226562 -15.34375 11.1875 -15.378906 C 11.121094 -15.433594 10.984375 -15.464844 10.777344 -15.464844 C 10.6875 -15.464844 10.613281 -15.457031 10.554688 -15.441406 C 10.527344 -15.433594 10.511719 -15.429688 10.5 -15.421875 C 10.46875 -15.402344 10.441406 -15.371094 10.417969 -15.328125 C 10.363281 -15.214844 10.335938 -15.0625 10.335938 -14.867188 C 10.335938 -14.386719 10.394531 -13.726562 10.511719 -12.886719 L 10.964844 -9.683594 L 6.957031 -8.945312 C 6.855469 -9.40625 6.730469 -9.902344 6.582031 -10.4375 C 6.441406 -10.960938 6.28125 -11.484375 6.101562 -12.011719 C 5.929688 -12.507812 5.742188 -12.976562 5.535156 -13.421875 C 5.347656 -13.820312 5.144531 -14.171875 4.925781 -14.476562 C 4.78125 -14.675781 4.640625 -14.824219 4.496094 -14.917969 C 4.480469 -14.925781 4.46875 -14.933594 4.457031 -14.933594 C 4.316406 -14.933594 4.183594 -14.894531 4.058594 -14.820312 C 3.847656 -14.691406 3.664062 -14.519531 3.507812 -14.300781 C 3.335938 -14.0625 3.21875 -13.820312 3.15625 -13.570312 C 3.027344 -13.035156 2.929688 -12.191406 2.859375 -11.039062 C 2.785156 -9.8125 2.75 -8.273438 2.75 -6.429688 C 2.75 -5.636719 2.777344 -4.890625 2.839844 -4.191406 C 2.894531 -3.589844 2.996094 -3.070312 3.144531 -2.621094 C 3.234375 -2.351562 3.351562 -2.148438 3.492188 -2.019531 C 3.507812 -2.003906 3.53125 -1.992188 3.566406 -1.976562 C 3.640625 -1.945312 3.757812 -1.921875 3.90625 -1.90625 C 3.9375 -1.90625 3.960938 -1.902344 3.980469 -1.902344 L 3.984375 -1.902344 C 3.941406 -1.894531 3.894531 -1.878906 3.847656 -1.847656 C 3.847656 -1.847656 3.84375 -1.847656 3.84375 -1.84375 C 3.84375 -1.84375 3.84375 -1.847656 3.847656 -1.847656 C 3.863281 -1.867188 3.882812 -1.894531 3.902344 -1.933594 C 4.011719 -2.140625 4.09375 -2.402344 4.152344 -2.714844 C 4.222656 -3.117188 4.261719 -3.546875 4.261719 -4.011719 C 4.261719 -4.523438 4.230469 -5.03125 4.171875 -5.542969 C 4.113281 -6.046875 4.035156 -6.515625 3.925781 -6.953125 L 7.832031 -8.105469 C 8.113281 -7.3125 8.375 -6.542969 8.621094 -5.808594 C 8.851562 -5.121094 9.085938 -4.488281 9.324219 -3.90625 C 9.53125 -3.410156 9.75 -2.988281 9.980469 -2.636719 C 10.128906 -2.414062 10.289062 -2.25 10.453125 -2.140625 C 10.523438 -2.097656 10.632812 -2.074219 10.777344 -2.074219 C 10.828125 -2.074219 10.863281 -2.078125 10.882812 -2.085938 C 10.878906 -2.082031 10.875 -2.082031 10.871094 -2.078125 C 10.988281 -2.171875 11.097656 -2.332031 11.199219 -2.558594 C 11.371094 -2.933594 11.503906 -3.386719 11.605469 -3.914062 C 11.71875 -4.515625 11.800781 -5.167969 11.84375 -5.871094 C 11.894531 -6.609375 11.917969 -7.359375 11.917969 -8.121094 Z M 11.917969 -8.121094 "/></g></g></g></g><g fill="#000000" fill-opacity="1"><g transform="translate(2.997734, 26.412405)"><g><path d="M 16.75 -2.6875 C 16.75 -2.164062 16.640625 -1.703125 16.421875 -1.296875 C 16.203125 -0.898438 15.914062 -0.570312 15.5625 -0.3125 C 15.207031 -0.0507812 14.820312 0.109375 14.40625 0.171875 C 14 0.242188 13.59375 0.207031 13.1875 0.0625 C 12.78125 -0.0820312 12.429688 -0.347656 12.140625 -0.734375 C 11.828125 -1.128906 11.628906 -1.53125 11.546875 -1.9375 C 11.460938 -2.34375 11.441406 -2.757812 11.484375 -3.1875 C 11.523438 -3.625 11.585938 -4.0625 11.671875 -4.5 C 11.753906 -4.945312 11.8125 -5.40625 11.84375 -5.875 C 11.882812 -6.351562 11.847656 -6.835938 11.734375 -7.328125 C 11.523438 -6.640625 11.316406 -6 11.109375 -5.40625 C 10.898438 -4.8125 10.6875 -4.289062 10.46875 -3.84375 C 10.257812 -3.394531 10.023438 -3.039062 9.765625 -2.78125 C 9.503906 -2.53125 9.207031 -2.40625 8.875 -2.40625 C 8.59375 -2.40625 8.332031 -2.515625 8.09375 -2.734375 C 7.863281 -2.953125 7.648438 -3.238281 7.453125 -3.59375 C 7.265625 -3.957031 7.09375 -4.363281 6.9375 -4.8125 C 6.789062 -5.257812 6.660156 -5.710938 6.546875 -6.171875 C 6.429688 -6.640625 6.335938 -7.082031 6.265625 -7.5 C 6.128906 -6.8125 6.0625 -6.144531 6.0625 -5.5 C 6.070312 -4.863281 6.101562 -4.265625 6.15625 -3.703125 C 6.207031 -3.148438 6.234375 -2.648438 6.234375 -2.203125 C 6.234375 -1.753906 6.171875 -1.363281 6.046875 -1.03125 C 5.929688 -0.707031 5.703125 -0.457031 5.359375 -0.28125 C 5.023438 -0.113281 4.53125 -0.03125 3.875 -0.03125 C 3.269531 -0.03125 2.765625 -0.179688 2.359375 -0.484375 C 1.960938 -0.796875 1.644531 -1.234375 1.40625 -1.796875 C 1.164062 -2.359375 0.992188 -3.023438 0.890625 -3.796875 C 0.785156 -4.566406 0.726562 -5.414062 0.71875 -6.34375 C 0.707031 -7.269531 0.726562 -8.257812 0.78125 -9.3125 C 0.832031 -10.363281 0.894531 -11.445312 0.96875 -12.5625 C 1.039062 -13.613281 1.347656 -14.507812 1.890625 -15.25 C 2.359375 -15.894531 2.882812 -16.351562 3.46875 -16.625 C 4.050781 -16.894531 4.640625 -16.957031 5.234375 -16.8125 C 5.828125 -16.675781 6.394531 -16.300781 6.9375 -15.6875 C 7.695312 -14.84375 8.332031 -13.546875 8.84375 -11.796875 C 8.9375 -12.578125 9.085938 -13.3125 9.296875 -14 C 9.515625 -14.6875 9.800781 -15.289062 10.15625 -15.8125 C 10.519531 -16.34375 10.957031 -16.753906 11.46875 -17.046875 C 11.976562 -17.335938 12.578125 -17.484375 13.265625 -17.484375 C 13.878906 -17.484375 14.394531 -17.34375 14.8125 -17.0625 C 15.226562 -16.789062 15.5625 -16.40625 15.8125 -15.90625 C 16.070312 -15.414062 16.257812 -14.84375 16.375 -14.1875 C 16.5 -13.53125 16.578125 -12.832031 16.609375 -12.09375 C 16.609375 -11.675781 16.613281 -11.164062 16.625 -10.5625 C 16.632812 -9.957031 16.644531 -9.300781 16.65625 -8.59375 C 16.675781 -7.882812 16.691406 -7.164062 16.703125 -6.4375 C 16.710938 -5.71875 16.722656 -5.03125 16.734375 -4.375 C 16.742188 -3.726562 16.75 -3.164062 16.75 -2.6875 Z M 16.75 -2.6875 "/></g></g></g><g fill="#000000" fill-opacity="1"><g transform="translate(20.446655, 26.412405)"><g><path d="M 13.78125 -9.171875 C 13.945312 -8.171875 14.0625 -7.210938 14.125 -6.296875 C 14.1875 -5.378906 14.179688 -4.539062 14.109375 -3.78125 C 14.046875 -3.019531 13.898438 -2.351562 13.671875 -1.78125 C 13.453125 -1.21875 13.132812 -0.78125 12.71875 -0.46875 C 12.3125 -0.15625 11.800781 0 11.1875 0 C 10.269531 0 9.597656 -0.25 9.171875 -0.75 C 8.742188 -1.257812 8.53125 -1.960938 8.53125 -2.859375 C 8.226562 -2.878906 7.90625 -2.878906 7.5625 -2.859375 C 7.226562 -2.847656 6.875 -2.816406 6.5 -2.765625 C 6.59375 -2.328125 6.609375 -1.90625 6.546875 -1.5 C 6.484375 -1.09375 6.347656 -0.726562 6.140625 -0.40625 C 5.941406 -0.0820312 5.671875 0.171875 5.328125 0.359375 C 4.992188 0.554688 4.609375 0.65625 4.171875 0.65625 C 3.535156 0.65625 3 0.519531 2.5625 0.25 C 2.132812 -0.0195312 1.785156 -0.382812 1.515625 -0.84375 C 1.242188 -1.3125 1.039062 -1.847656 0.90625 -2.453125 C 0.78125 -3.066406 0.710938 -3.71875 0.703125 -4.40625 C 0.703125 -5.101562 0.742188 -5.8125 0.828125 -6.53125 C 0.910156 -7.25 1.023438 -7.945312 1.171875 -8.625 C 1.367188 -9.539062 1.597656 -10.4375 1.859375 -11.3125 C 2.117188 -12.195312 2.421875 -13.023438 2.765625 -13.796875 C 3.109375 -14.566406 3.507812 -15.242188 3.96875 -15.828125 C 4.425781 -16.410156 4.957031 -16.867188 5.5625 -17.203125 C 6.164062 -17.546875 6.847656 -17.71875 7.609375 -17.71875 C 8.503906 -17.71875 9.265625 -17.59375 9.890625 -17.34375 C 10.515625 -17.09375 11.035156 -16.726562 11.453125 -16.25 C 11.878906 -15.769531 12.234375 -15.179688 12.515625 -14.484375 C 12.796875 -13.796875 13.03125 -13.003906 13.21875 -12.109375 C 13.414062 -11.222656 13.601562 -10.242188 13.78125 -9.171875 Z M 6.734375 -7.34375 L 8.015625 -7.34375 C 8.054688 -7.914062 8.0625 -8.628906 8.03125 -9.484375 C 8.007812 -10.347656 7.941406 -11.363281 7.828125 -12.53125 C 7.804688 -12.800781 7.753906 -12.972656 7.671875 -13.046875 C 7.597656 -13.117188 7.519531 -13.109375 7.4375 -13.015625 C 7.363281 -12.921875 7.304688 -12.757812 7.265625 -12.53125 C 7.222656 -12.207031 7.171875 -11.832031 7.109375 -11.40625 C 7.054688 -10.988281 7.003906 -10.566406 6.953125 -10.140625 C 6.898438 -9.710938 6.851562 -9.304688 6.8125 -8.921875 C 6.78125 -8.546875 6.753906 -8.21875 6.734375 -7.9375 C 6.722656 -7.65625 6.722656 -7.457031 6.734375 -7.34375 Z M 6.734375 -7.34375 "/></g></g></g><g fill="#000000" fill-opacity="1"><g transform="translate(35.320173, 26.412405)"><g><path d="M 13.953125 -8.125 C 13.953125 -7.3125 13.925781 -6.515625 13.875 -5.734375 C 13.820312 -4.953125 13.726562 -4.21875 13.59375 -3.53125 C 13.46875 -2.84375 13.285156 -2.238281 13.046875 -1.71875 C 12.816406 -1.195312 12.515625 -0.785156 12.140625 -0.484375 C 11.765625 -0.179688 11.3125 -0.03125 10.78125 -0.03125 C 10.238281 -0.03125 9.765625 -0.160156 9.359375 -0.421875 C 8.953125 -0.679688 8.59375 -1.039062 8.28125 -1.5 C 7.976562 -1.96875 7.695312 -2.507812 7.4375 -3.125 C 7.175781 -3.75 6.925781 -4.425781 6.6875 -5.15625 C 6.445312 -5.882812 6.1875 -6.644531 5.90625 -7.4375 C 6.03125 -6.914062 6.125 -6.359375 6.1875 -5.765625 C 6.257812 -5.179688 6.296875 -4.59375 6.296875 -4 C 6.296875 -3.414062 6.25 -2.863281 6.15625 -2.34375 C 6.0625 -1.832031 5.910156 -1.378906 5.703125 -0.984375 C 5.503906 -0.597656 5.234375 -0.300781 4.890625 -0.09375 C 4.554688 0.101562 4.148438 0.175781 3.671875 0.125 C 3.015625 0.0625 2.488281 -0.148438 2.09375 -0.515625 C 1.707031 -0.890625 1.410156 -1.375 1.203125 -1.96875 C 1.003906 -2.570312 0.867188 -3.253906 0.796875 -4.015625 C 0.734375 -4.773438 0.703125 -5.578125 0.703125 -6.421875 C 0.703125 -10.203125 0.859375 -12.738281 1.171875 -14.03125 C 1.304688 -14.550781 1.53125 -15.035156 1.84375 -15.484375 C 2.164062 -15.929688 2.550781 -16.289062 3 -16.5625 C 3.445312 -16.832031 3.929688 -16.96875 4.453125 -16.96875 C 4.867188 -16.96875 5.253906 -16.847656 5.609375 -16.609375 C 5.960938 -16.378906 6.285156 -16.0625 6.578125 -15.65625 C 6.867188 -15.25 7.132812 -14.789062 7.375 -14.28125 C 7.613281 -13.769531 7.828125 -13.226562 8.015625 -12.65625 C 8.210938 -12.09375 8.390625 -11.53125 8.546875 -10.96875 C 8.703125 -10.40625 8.832031 -9.878906 8.9375 -9.390625 C 8.769531 -10.585938 8.617188 -11.65625 8.484375 -12.59375 C 8.359375 -13.53125 8.296875 -14.285156 8.296875 -14.859375 C 8.296875 -15.378906 8.394531 -15.835938 8.59375 -16.234375 C 8.789062 -16.628906 9.070312 -16.9375 9.4375 -17.15625 C 9.8125 -17.382812 10.257812 -17.5 10.78125 -17.5 C 12.226562 -17.5 13.128906 -16.695312 13.484375 -15.09375 C 13.535156 -14.832031 13.582031 -14.476562 13.625 -14.03125 C 13.675781 -13.59375 13.722656 -13.109375 13.765625 -12.578125 C 13.804688 -12.046875 13.835938 -11.503906 13.859375 -10.953125 C 13.890625 -10.398438 13.910156 -9.875 13.921875 -9.375 C 13.941406 -8.882812 13.953125 -8.46875 13.953125 -8.125 Z M 13.953125 -8.125 "/></g></g></g></g></g></g></svg>